<?xml version="1.0" standalone="no"?>
<!DOCTYPE svg PUBLIC "-//W3C//DTD SVG 20010904//EN"
 "http://www.w3.org/TR/2001/REC-SVG-20010904/DTD/svg10.dtd">
<svg version="1.0" xmlns="http://www.w3.org/2000/svg"
 width="421.000000pt" height="420.000000pt" viewBox="0 0 421.000000 420.000000"
 preserveAspectRatio="xMidYMid meet">
<metadata>
Created by potrace 1.10, written by Peter Selinger 2001-2011
</metadata>
<g transform="translate(0.000000,420.000000) scale(0.050000,-0.050000)"
fill="#00fdff" stroke="none">
<path d="M2680 8382 c0 -10 -137 -86 -305 -169 -345 -171 -735 -416 -735 -462
0 -17 -10 -31 -21 -31 -12 0 -15 11 -6 25 18 30 -10 9 -213 -157 -286 -235
-738 -736 -724 -803 4 -16 -3 -23 -14 -16 -51 31 -460 -707 -582 -1049 -25
-71 -54 -139 -63 -149 -9 -10 -17 -622 -17 -1359 l0 -1341 93 -238 c352 -906
958 -1653 1768 -2178 191 -124 379 -223 379 -200 0 8 7 5 15 -7 18 -28 209
-125 384 -196 l128 -52 1454 0 c1280 0 1463 4 1532 32 829 338 1782 1085 2050
1606 15 29 33 57 40 62 62 48 307 502 436 810 47 110 97 210 113 222 41 32 42
2902 1 2936 -14 12 -70 123 -123 247 -53 124 -106 225 -117 225 -11 0 -14 6
-7 13 16 16 -124 287 -148 287 -10 0 -18 14 -18 32 0 88 -578 824 -624 795
-12 -7 -17 -4 -10 7 16 25 -133 172 -154 151 -8 -8 -12 -4 -9 9 21 76 -655
548 -1110 775 -172 86 -313 164 -313 173 0 10 -669 18 -1540 18 -889 0 -1540
-8 -1540 -18z m2220 -39 c334 -47 771 -182 1117 -347 178 -84 265 -132 447
-246 1251 -785 1924 -2030 1923 -3560 0 -1162 -331 -2025 -1091 -2844 -440
-475 -750 -690 -1506 -1046 -151 -71 -633 -210 -795 -230 -47 -5 -148 -19
-225 -29 -169 -24 -952 -23 -1120 0 -66 10 -156 21 -200 26 -377 44 -1068 317
-1490 589 -2905 1873 -2464 6197 762 7471 167 66 617 188 748 203 55 7 150 19
210 27 157 22 1042 12 1220 -14z"/>
<path d="M4133 8246 c-5 -5 -62 -14 -126 -19 -225 -17 -577 -71 -584 -89 -3
-10 -30 -18 -60 -18 -29 0 -105 -14 -168 -30 -356 -92 -319 -79 -592 -203 -81
-37 -154 -67 -163 -67 -10 0 -29 -11 -44 -25 -15 -14 -62 -43 -106 -65 -94
-47 -388 -226 -424 -258 -13 -12 -67 -53 -118 -92 -52 -38 -127 -99 -168 -135
-41 -35 -81 -58 -89 -50 -8 8 -12 6 -9 -5 3 -11 -39 -66 -93 -121 -196 -200
-309 -326 -310 -342 0 -9 -36 -57 -80 -106 -43 -49 -84 -106 -90 -125 -7 -20
-21 -36 -32 -36 -10 0 -14 -8 -8 -18 6 -10 -10 -44 -35 -75 -26 -31 -69 -97
-96 -147 -26 -49 -59 -97 -73 -106 -14 -9 -25 -30 -25 -48 0 -17 -27 -78 -60
-136 -33 -57 -54 -110 -47 -117 8 -7 0 -29 -17 -48 -32 -37 -123 -281 -154
-415 -11 -44 -42 -170 -69 -280 -50 -199 -61 -270 -84 -500 -6 -66 -21 -147
-33 -181 -15 -44 -14 -127 3 -300 13 -131 28 -288 33 -349 5 -60 18 -137 28
-170 11 -33 25 -96 31 -140 7 -44 21 -116 33 -160 11 -44 21 -99 23 -123 2
-24 11 -38 21 -32 11 6 13 -2 7 -19 -7 -17 -3 -40 8 -51 10 -10 21 -41 23 -67
18 -184 405 -962 584 -1171 11 -13 42 -52 69 -87 27 -35 73 -91 104 -123 30
-32 56 -65 58 -73 2 -8 11 -12 21 -9 10 3 18 -4 18 -15 0 -24 180 -209 181
-186 0 9 14 -9 31 -41 20 -36 42 -52 61 -45 16 6 24 3 17 -7 -6 -11 36 -56 94
-101 58 -46 132 -104 163 -131 31 -27 66 -49 76 -49 11 0 14 -8 8 -18 -6 -9 5
-16 24 -15 19 2 33 -9 30 -23 -4 -15 2 -22 12 -16 15 9 103 -44 143 -87 6 -6
51 -31 100 -56 50 -25 119 -63 155 -85 36 -21 65 -35 65 -30 0 5 77 -32 172
-82 94 -49 166 -81 159 -70 -7 11 13 7 43 -9 31 -16 67 -29 81 -29 14 0 25 -8
25 -17 0 -10 56 -29 125 -43 69 -14 134 -33 145 -41 11 -8 74 -25 140 -38 66
-13 183 -37 260 -52 354 -74 797 -88 1110 -37 105 17 222 34 260 38 39 5 112
22 163 38 51 16 99 24 105 17 6 -6 41 2 77 19 89 42 197 80 245 85 22 2 71 18
110 36 38 17 78 26 88 20 10 -6 11 0 2 15 -10 17 -6 22 12 16 15 -6 59 7 98
27 38 20 81 37 96 37 15 0 20 10 12 23 -8 13 -5 18 7 10 22 -14 183 67 377
190 67 42 128 77 135 77 12 0 42 23 140 107 24 21 77 59 118 86 102 65 150
107 345 307 252 258 309 321 382 430 59 87 157 228 231 333 12 18 20 36 16 40
-5 4 21 49 57 101 35 51 64 100 64 108 0 8 21 60 48 116 126 269 242 572 219
572 -6 0 -3 11 7 25 11 14 31 70 44 125 13 55 32 132 41 170 18 73 44 229 81
470 50 336 6 850 -111 1300 -29 110 -57 227 -62 260 -6 33 -19 70 -28 82 -10
11 -37 83 -61 158 -23 76 -59 169 -80 208 -21 39 -38 79 -38 89 0 9 -17 41
-39 71 -21 30 -44 79 -52 108 -7 30 -20 54 -29 54 -8 0 -21 16 -27 35 -34 101
-310 499 -434 625 -27 28 -86 94 -132 145 -46 52 -93 95 -105 95 -12 0 -22 9
-22 19 0 26 -142 155 -310 282 -77 59 -144 113 -150 120 -5 8 -39 31 -74 52
-35 20 -132 80 -216 132 -83 52 -164 95 -181 95 -16 0 -29 8 -29 18 0 11 -27
25 -60 32 -33 7 -60 19 -60 27 0 14 -18 22 -240 109 -311 123 -764 229 -1170
275 -252 29 -385 37 -397 25z m477 -107 c3325 -315 4763 -4376 2392 -6757
-1564 -1571 -4301 -1494 -5722 160 -60 70 -126 146 -147 168 -170 184 -496
760 -621 1095 -1024 2753 1171 5611 4098 5334z"/>
<path d="M3887 7540 c-2046 -170 -3471 -2266 -2895 -4255 675 -2328 3514
-3212 5365 -1670 789 657 1209 1555 1210 2585 2 1994 -1665 3508 -3680 3340z
m508 -120 c27 0 45 -12 45 -30 0 -32 12 -31 175 10 64 16 96 -18 46 -49 -23
-15 -5 -71 23 -71 12 0 16 16 11 36 -12 46 127 96 181 65 29 -17 25 -20 -20
-20 -29 -1 -59 -9 -65 -19 -17 -28 99 -47 189 -32 49 8 80 6 80 -7 0 -11 47
-30 105 -42 57 -13 123 -34 145 -49 22 -15 57 -20 79 -12 30 10 56 -4 104 -55
36 -38 75 -63 86 -56 12 8 21 4 21 -8 0 -11 7 -20 15 -19 8 2 20 1 25 -1 32
-13 100 -12 100 2 0 9 14 10 32 4 23 -9 25 -17 7 -28 -29 -18 -8 -59 31 -59
14 0 30 -9 34 -21 3 -11 25 -22 47 -24 28 -2 41 -17 40 -44 -1 -36 11 -41 93
-41 52 0 104 -10 116 -23 17 -16 8 -19 -33 -12 l-57 10 50 -57 c68 -79 82 -87
142 -88 45 0 51 -7 43 -50 -10 -54 13 -63 75 -30 53 28 69 -9 26 -59 -19 -23
-51 -41 -70 -41 -20 0 -36 -9 -36 -20 0 -30 43 -24 126 18 41 21 79 30 85 20
7 -10 -3 -24 -20 -30 -34 -14 -44 -157 -13 -205 24 -39 46 4 31 63 -7 30 0 56
20 73 44 37 61 13 64 -93 l2 -91 -112 13 c-62 7 -210 13 -328 14 -169 1 -215
7 -215 29 0 18 -12 23 -34 15 -21 -9 -25 -16 -10 -21 47 -16 1 -45 -72 -46
-41 -1 -92 -10 -114 -19 -40 -17 -31 -24 35 -28 49 -3 45 -41 -6 -49 -24 -3
-38 -17 -32 -31 5 -14 2 -38 -8 -53 -9 -16 -8 -38 3 -52 15 -17 11 -21 -16
-14 -29 7 -37 -4 -40 -57 -7 -111 -16 -166 -27 -176 -19 -17 -59 -220 -59
-301 0 -45 -12 -84 -28 -93 -15 -9 -32 -34 -37 -56 -9 -36 -11 -36 -13 5 -1
25 -11 45 -22 45 -11 0 -19 -27 -16 -60 3 -41 14 -58 35 -55 22 4 29 -9 25
-45 -3 -27 -8 -86 -11 -130 -8 -114 -33 -190 -63 -190 -30 0 -50 -87 -28 -123
8 -13 6 -41 -5 -62 -10 -20 -14 -53 -7 -74 6 -21 2 -43 -9 -50 -12 -8 -21 -38
-21 -69 0 -30 -6 -62 -14 -70 -8 -7 -12 -49 -9 -93 7 -88 -44 -171 -62 -101
-5 20 1 62 14 94 14 32 21 85 16 118 -11 82 -25 90 -25 13 0 -45 -9 -63 -33
-63 -26 0 -30 14 -19 80 14 91 -25 240 -63 240 -22 0 -33 52 -30 135 0 14 -7
25 -17 25 -10 0 -14 31 -9 68 6 45 -1 77 -20 93 -17 14 -29 60 -29 111 0 70
-7 88 -34 88 -26 0 -29 5 -10 24 30 30 32 96 3 96 -12 0 -16 17 -9 39 7 24 -6
68 -36 115 -32 52 -57 141 -78 278 -34 223 -65 306 -126 337 -22 12 -43 39
-46 61 -10 71 -23 93 -45 79 -12 -7 -17 -25 -11 -40 6 -15 3 -32 -5 -37 -28
-17 -68 23 -71 71 -1 33 -16 49 -47 53 -48 7 -58 -15 -24 -49 30 -30 -16 -43
-91 -26 -33 8 -44 15 -25 17 55 3 42 62 -14 62 -41 0 -47 -8 -39 -52 6 -33 2
-47 -12 -38 -109 67 -713 -1 -667 -75 8 -12 4 -15 -10 -7 -14 8 -29 -1 -37
-22 -7 -20 -30 -51 -50 -68 -44 -40 -46 -70 -5 -86 24 -9 26 -20 9 -52 -12
-23 -17 -49 -11 -58 15 -25 -42 -43 -84 -28 -28 11 -31 8 -14 -15 28 -39 36
-299 9 -299 -11 0 -20 -26 -20 -59 0 -32 -9 -64 -20 -71 -11 -7 -20 -30 -20
-51 0 -22 -11 -39 -25 -39 -17 -1 -15 -7 5 -22 22 -15 24 -24 5 -31 -13 -6
-30 -54 -37 -108 -7 -55 -23 -96 -35 -93 -13 2 -22 -5 -20 -16 20 -126 21
-150 6 -150 -9 0 -24 -38 -34 -85 -13 -64 -26 -84 -51 -79 -38 6 -46 -36 -13
-69 16 -16 16 -56 0 -139 -18 -101 -33 -197 -39 -253 -7 -57 -38 4 -48 90 -11
103 -51 215 -77 215 -7 0 -5 33 4 74 9 41 12 81 6 90 -20 32 -47 -7 -47 -69 0
-113 -20 -44 -29 104 -6 80 -21 160 -35 176 -15 17 -27 82 -28 143 -4 202 -34
418 -50 362 -10 -37 -15 -24 -16 53 -1 57 -11 107 -21 110 -24 9 -61 237 -38
237 9 0 17 10 17 22 0 12 -13 17 -30 11 -34 -13 -44 56 -11 76 39 25 21 211
-21 211 -42 0 -53 -52 -13 -65 18 -6 19 -20 2 -57 l-22 -48 -15 55 c-8 30 -21
55 -30 55 -9 0 -21 14 -28 31 -6 18 -3 26 8 19 11 -7 20 -3 20 8 0 11 -9 25
-20 32 -30 19 -24 50 10 50 17 0 30 9 30 20 0 33 -57 23 -77 -14 -19 -34 -122
-42 -168 -13 -36 22 -168 30 -380 22 -97 -4 -135 2 -135 20 0 14 -9 25 -20 25
-11 0 -20 -13 -20 -30 0 -16 -14 -30 -32 -30 -19 0 -28 11 -22 28 6 15 0 39
-13 52 -18 20 -17 23 2 12 17 -10 25 2 25 37 0 34 11 51 33 51 19 0 28 -6 21
-13 -7 -7 7 -30 31 -52 l45 -39 6 73 c6 66 12 73 60 70 98 -6 106 -1 62 43
-40 40 -40 43 -5 81 28 31 30 43 9 56 -33 20 61 46 105 29 52 -19 80 12 39 43
-31 24 -32 28 -4 28 18 1 49 23 69 49 19 27 48 44 62 38 48 -18 95 11 68 43
-19 22 -10 32 47 53 38 14 68 34 66 44 -5 26 87 33 136 10 37 -17 37 -16 5 10
-44 35 35 86 106 68 32 -8 46 -1 53 26 6 21 47 58 93 81 46 24 89 52 95 63 8
12 36 8 74 -12 39 -20 66 -24 74 -12 7 11 1 21 -14 21 -14 1 -4 10 23 21 26
11 61 15 76 9 45 -17 135 11 102 31 -20 13 -17 18 13 21 53 4 199 12 310 17
50 2 79 8 65 13 -29 12 -34 67 -6 67 10 0 24 -9 31 -19 12 -21 111 -10 180 19
72 31 99 34 240 27 77 -3 160 -6 185 -7z m-724 -52 c36 -29 36 -30 2 -20 -20
7 -65 13 -100 13 -53 2 -57 4 -23 19 59 25 78 23 121 -12z m-854 -2498 c132
-671 247 -1258 254 -1305 20 -132 42 -118 79 50 19 85 141 601 273 1145 131
545 256 1061 277 1148 21 88 34 166 28 175 -6 10 201 17 459 17 l470 0 13 -65
c13 -60 130 -549 391 -1625 56 -231 128 -536 159 -677 58 -259 73 -302 87
-251 4 15 123 611 264 1323 l256 1295 556 0 c306 0 557 -6 557 -13 0 -7 -46
-190 -102 -405 -56 -216 -158 -612 -228 -882 -163 -628 -356 -1369 -506 -1940
-65 -247 -139 -533 -165 -634 l-48 -185 -536 -5 -537 -6 -11 50 c-15 67 -105
415 -344 1340 -109 424 -210 817 -223 875 -26 115 -80 147 -80 49 0 -57 -56
-286 -239 -984 -54 -203 -144 -550 -201 -770 -56 -220 -111 -434 -122 -475
l-20 -75 -536 0 -536 0 -123 475 c-68 261 -196 754 -284 1095 -516 1986 -639
2461 -639 2475 0 16 1082 31 1103 15 7 -5 121 -559 254 -1230z m4203 861 c0
-27 10 -55 23 -63 14 -9 18 -5 9 9 -9 15 1 23 29 23 38 0 40 -4 18 -32 -16
-18 -19 -37 -8 -45 31 -21 33 -68 5 -86 -18 -11 -12 -16 19 -17 38 0 45 -11
45 -69 0 -37 14 -82 32 -100 17 -17 41 -65 52 -106 11 -40 34 -83 50 -95 30
-23 40 -103 47 -414 2 -96 9 -174 16 -173 66 8 67 -1 60 -323 -5 -239 -13
-320 -32 -320 -36 0 -31 -27 15 -85 45 -58 49 -75 19 -75 -12 0 -15 11 -6 25
12 20 8 20 -16 0 -22 -18 -32 -66 -33 -170 -3 -146 -86 -413 -110 -352 -6 15
-12 -16 -12 -68 -2 -89 -14 -106 -68 -97 -10 2 -12 -6 -5 -17 7 -10 25 -14 42
-8 41 16 36 -6 -11 -53 -22 -22 -40 -62 -40 -90 0 -27 -8 -50 -17 -50 -9 0
-27 -23 -40 -51 -13 -28 -32 -46 -42 -40 -11 7 -11 -13 0 -53 23 -79 25 -128
4 -108 -8 9 -15 25 -15 37 0 12 -11 25 -25 30 -14 5 -25 -6 -25 -23 0 -18 -13
-32 -28 -32 -34 0 -63 -66 -33 -76 29 -10 26 -49 -7 -113 -16 -32 -33 -45 -41
-32 -7 11 -8 30 -1 41 7 11 -6 20 -29 20 -47 0 -58 -75 -16 -117 20 -21 18
-31 -10 -52 -19 -14 -35 -40 -35 -58 0 -18 -7 -34 -15 -34 -100 -10 -205 -76
-150 -94 43 -14 28 -37 -45 -65 -38 -15 -70 -34 -70 -42 0 -30 -61 -35 -89 -6
-28 28 -31 26 -31 -12 0 -23 9 -37 20 -30 11 7 36 3 55 -8 32 -19 31 -21 -8
-21 -48 -1 -72 -41 -46 -82 20 -34 6 -59 -33 -59 -17 0 -25 9 -18 21 9 13 -12
19 -54 16 -58 -4 -68 -12 -67 -55 1 -37 -12 -53 -48 -62 -70 -16 -76 -59 -7
-54 31 2 63 13 73 24 10 12 13 10 9 -6 -4 -15 -13 -24 -19 -20 -7 3 -30 -10
-51 -29 -31 -27 -44 -29 -63 -10 -20 20 -22 17 -11 -13 11 -28 8 -34 -10 -23
-14 8 -20 27 -14 42 6 15 3 32 -7 38 -9 6 -22 -3 -28 -19 -7 -17 -35 -39 -63
-50 -29 -11 -50 -31 -49 -45 8 -55 -3 -75 -39 -75 -20 0 -48 -13 -62 -30 -14
-16 -36 -30 -50 -30 -40 0 -131 -52 -116 -67 11 -11 -24 -17 -67 -11 -7 1 -18
-7 -25 -16 -14 -22 -203 -115 -234 -116 -32 -1 -97 -70 -66 -70 14 0 19 -5 13
-12 -26 -26 -57 15 -34 44 18 20 18 28 1 28 -23 0 -44 -9 -158 -69 -37 -19
-72 -30 -79 -23 -6 6 -21 4 -33 -5 -12 -10 -58 -23 -102 -30 -44 -7 -100 -19
-125 -25 -33 -9 -45 -4 -45 20 0 17 -8 32 -18 32 -10 0 -34 6 -53 13 -24 9
-32 5 -25 -15 20 -60 -34 -73 -301 -70 -203 1 -268 -4 -281 -25 -18 -29 -130
-16 -176 21 -13 11 -34 13 -46 6 -12 -7 -43 0 -68 17 -35 23 -77 28 -159 19
-79 -8 -122 -4 -145 15 -17 15 -57 25 -87 23 -31 -2 -67 9 -81 26 -29 35 -86
39 -141 9 -27 -14 -39 -14 -39 0 0 12 14 21 32 21 72 0 9 47 -70 52 -47 3
-103 21 -123 39 -21 19 -50 29 -66 23 -16 -6 -46 7 -66 29 -22 25 -53 37 -81
31 -25 -5 -46 -1 -46 9 0 9 10 17 22 17 32 0 10 49 -24 52 -15 1 -52 3 -81 5
-34 2 -56 17 -63 44 -6 22 -18 39 -27 37 -48 -8 -67 7 -67 52 0 31 -11 50 -30
50 -16 0 -50 20 -74 44 -32 32 -46 36 -52 17 -5 -15 5 -35 23 -45 36 -20 44
-56 13 -56 -11 0 -38 18 -60 40 -22 22 -59 40 -83 40 -41 0 -41 2 -10 37 29
32 30 41 6 61 -16 13 -24 41 -19 63 11 41 -41 57 -64 19 -27 -44 -82 -21 -81
35 1 45 -7 54 -42 51 -34 -4 -41 4 -33 35 6 21 25 40 43 42 18 1 -3 8 -47 15
-70 10 -79 18 -73 59 5 37 -1 44 -30 35 -52 -16 -87 12 -98 80 -18 104 -24
112 -70 87 -56 -29 -71 -11 -42 52 18 39 18 61 -1 95 -14 24 -25 53 -25 64 -1
11 -31 17 -68 13 -65 -6 -67 -4 -54 53 9 41 3 69 -18 90 -17 17 -31 46 -31 65
0 24 -12 31 -42 23 -36 -10 -41 -4 -33 37 6 31 0 49 -16 49 -13 0 -30 23 -37
51 -8 30 -22 45 -35 37 -16 -10 -18 8 -9 59 12 63 9 71 -20 59 -28 -10 -32 -3
-24 40 6 33 0 56 -17 62 -15 6 -27 34 -27 61 0 28 -7 51 -15 51 -17 0 -65 97
-65 132 0 14 16 20 40 14 31 -8 40 -1 40 33 0 36 -10 43 -55 37 -35 -4 -54 3
-53 19 7 91 7 91 38 65 23 -19 30 -19 30 -1 0 30 -50 81 -79 81 -11 0 -22 16
-23 35 -1 19 -4 53 -6 75 -3 22 -7 94 -10 160 -3 88 -9 109 -22 80 -14 -32
-17 -25 -19 36 0 42 7 71 17 65 10 -6 23 75 29 184 21 388 49 670 68 683 10 6
25 38 33 69 9 36 23 53 41 46 21 -8 20 3 -4 51 -34 68 23 304 61 251 10 -15
12 -1 4 35 -7 33 -7 54 1 46 24 -25 74 44 63 86 -8 30 -3 38 18 30 20 -8 33 7
41 48 24 122 116 -24 103 -163 -4 -43 1 -69 12 -62 11 6 13 -3 6 -22 -17 -44
3 -93 38 -93 41 0 39 -177 -2 -193 -34 -13 -41 -87 -8 -87 12 0 26 18 32 40
15 57 66 50 66 -9 0 -27 9 -54 20 -61 11 -7 20 -41 20 -75 0 -66 -29 -57 -45
15 -8 38 -9 39 -25 2 -10 -22 -7 -52 7 -74 13 -21 23 -51 23 -67 0 -16 12 -36
27 -45 14 -9 38 -61 53 -116 14 -55 39 -125 54 -156 16 -31 33 -85 38 -120 17
-109 25 -182 27 -229 1 -29 13 -45 35 -45 24 0 28 -6 12 -22 -24 -24 12 -192
62 -287 19 -37 25 -92 17 -173 -9 -105 -7 -117 22 -106 20 7 34 37 35 75 2 61
3 61 18 13 25 -80 23 -120 -7 -108 -19 7 -12 -36 25 -151 36 -111 60 -158 78
-151 17 6 20 1 10 -15 -19 -29 -21 -101 -4 -115 23 -20 38 -143 16 -128 -24
14 -14 -30 35 -147 19 -43 39 -65 56 -58 22 8 28 -22 30 -143 7 -372 5 -360
45 -371 21 -5 49 -38 62 -72 12 -34 32 -58 43 -55 46 16 116 -73 78 -101 -30
-21 -22 -25 59 -25 72 0 94 7 94 31 0 52 36 13 51 -54 14 -67 48 -45 49 33 0
39 10 40 345 30 444 -13 463 -48 30 -56 -406 -7 -409 -38 -5 -42 171 -2 310 4
310 13 0 9 32 28 70 42 39 14 70 34 70 44 0 10 12 13 26 8 14 -6 47 13 73 40
27 28 59 51 72 51 36 0 55 64 25 83 -21 14 -20 21 2 35 16 10 27 46 26 80 -1
35 9 62 22 62 34 0 42 183 9 203 -20 13 -20 16 0 17 14 0 26 16 26 35 2 30 4
29 18 -5 8 -22 11 -52 6 -66 -8 -20 1 -21 41 -2 45 20 49 29 31 76 -27 70 -39
302 -16 302 18 0 28 -59 20 -117 -2 -16 11 -24 33 -20 26 5 38 29 42 82 5 63
1 73 -28 62 -62 -24 -20 181 74 358 10 19 18 70 18 114 0 43 9 84 20 91 11 7
20 37 20 66 1 72 21 144 41 144 9 0 20 -20 25 -45 5 -25 10 -7 11 40 3 95 63
128 63 34 0 -27 14 -83 30 -122 17 -40 30 -89 30 -111 0 -21 9 -33 21 -26 13
9 16 -6 8 -43 -8 -38 -6 -48 6 -31 25 34 21 -155 -3 -194 -13 -19 -11 -24 5
-14 15 9 23 -1 23 -29 0 -33 6 -39 25 -23 20 17 24 4 18 -57 -4 -45 2 -79 13
-79 35 0 64 -121 64 -264 0 -100 6 -134 23 -124 16 10 20 1 12 -29 -8 -29 -2
-43 17 -43 35 0 36 -24 3 -57 -20 -20 -19 -23 7 -13 34 13 68 -38 47 -71 -22
-36 36 -181 67 -169 23 8 24 5 8 -15 -14 -17 -15 -37 -3 -56 26 -40 24 -64 -4
-47 -15 9 -18 5 -9 -9 8 -13 23 -19 32 -13 22 14 98 -65 124 -130 l21 -50 24
57 24 56 35 -53 35 -54 46 43 c53 50 686 57 655 7 -10 -16 -107 -25 -312 -28
-193 -2 -286 -10 -264 -22 84 -47 722 9 758 66 13 21 35 38 49 38 69 0 184
110 173 165 -10 50 16 78 37 40 5 -8 6 -4 3 9 -4 14 9 40 28 59 28 28 33 69
30 231 -4 205 15 246 62 134 l26 -63 13 51 c9 33 -2 78 -30 130 -39 75 -40 83
-10 126 27 38 33 40 33 12 0 -96 51 -23 56 81 11 214 14 242 22 234 27 -28 58
43 50 112 -6 52 -2 79 13 79 13 0 18 14 11 31 -6 18 -3 26 8 19 24 -15 26 -1
29 180 2 151 22 215 54 167 9 -15 12 -61 5 -102 -9 -58 -4 -78 20 -87 18 -7
32 -34 32 -60 0 -26 9 -48 20 -48 25 0 26 -3 -11 160 -24 104 -26 148 -9 179
17 32 16 40 -4 36 -15 -3 -29 19 -33 53 -5 46 0 55 26 45 26 -10 29 0 20 63
-9 57 -3 84 28 116 22 24 43 69 46 100 4 32 17 56 29 54 14 -3 23 41 24 120 3
182 5 192 26 205 10 6 13 21 6 32 -6 11 3 36 21 56 40 44 59 134 31 151 -11 7
-20 21 -20 32 0 11 8 15 18 9 26 -16 46 44 53 154 9 137 48 251 73 208 10 -18
27 -33 37 -33 25 0 24 74 -1 90 -33 21 -24 170 11 183 23 9 28 28 18 70 -13
61 21 82 37 22 5 -19 10 -1 12 41 1 42 -7 94 -19 116 -22 40 -11 78 22 78 11
0 19 -22 19 -49z m378 -1026 c-2 -85 -4 -89 -18 -35 -23 88 -23 130 0 130 11
0 19 -43 18 -95z m-5798 -2327 c0 -21 -8 -38 -18 -38 -32 0 -63 54 -50 88 16
43 68 5 68 -50z"/>
<path d="M4080 7380 c-25 -16 -23 -19 10 -20 22 0 63 -5 90 -11 45 -9 46 -8
10 11 -31 16 -13 19 75 12 63 -5 115 -2 115 7 0 23 -265 24 -300 1z"/>
<path d="M2991 7142 c-6 -10 0 -22 14 -27 34 -12 95 6 95 27 0 24 -94 23 -109
0z"/>
<path d="M2400 6720 c0 -22 13 -40 30 -40 17 0 30 18 30 40 0 22 -13 40 -30
40 -17 0 -30 -18 -30 -40z"/>
<path d="M2080 6320 c0 -44 3 -45 47 -28 36 14 21 68 -19 68 -15 0 -28 -18
-28 -40z"/>
<path d="M2420 6290 c0 -23 14 -31 45 -26 25 3 45 15 45 26 0 11 -20 23 -45
26 -31 5 -45 -3 -45 -26z"/>
<path d="M3413 5667 c-30 -31 -14 -93 17 -67 17 14 30 37 30 52 0 30 -24 37
-47 15z"/>
<path d="M5335 5265 c-4 -52 -1 -108 8 -125 9 -18 16 20 16 95 1 148 -11 164
-24 30z"/>
<path d="M5320 4991 c0 -27 9 -54 20 -61 12 -7 20 13 20 49 0 33 -9 61 -20 61
-11 0 -20 -22 -20 -49z"/>
<path d="M5280 4702 c0 -50 26 -85 42 -59 27 42 21 77 -12 77 -16 0 -30 -8
-30 -18z"/>
<path d="M7250 5097 c-18 -46 -5 -137 20 -143 28 -6 37 97 13 140 -19 33 -21
33 -33 3z"/>
<path d="M6853 5065 c-7 -12 -4 -28 7 -35 11 -7 16 -34 10 -61 -5 -27 -15 -71
-20 -99 -6 -27 -2 -50 10 -50 11 0 20 21 20 48 0 26 14 58 30 72 38 32 39 100
2 100 -16 0 -32 11 -37 24 -6 18 -11 18 -22 1z"/>
<path d="M1040 4005 c1 -56 6 -67 20 -45 23 35 26 13 24 -150 -2 -133 16 -179
38 -100 24 82 -19 370 -55 370 -18 0 -27 -26 -27 -75z"/>
<path d="M7300 4038 c0 -48 47 -42 56 9 4 19 -6 33 -25 33 -18 0 -31 -17 -31
-42z"/>
<path d="M7295 3869 c-8 -9 -15 -37 -15 -62 0 -26 -9 -47 -21 -47 -12 0 -19
-35 -16 -80 5 -87 37 -112 37 -29 0 29 10 69 21 91 23 44 18 151 -6 127z"/>
<path d="M1800 3709 c0 -29 14 -65 30 -82 34 -34 41 1 17 88 -16 61 -47 57
-47 -6z"/>
<path d="M1713 2464 c-13 -20 47 -144 69 -144 10 0 18 14 18 30 0 17 -9 30
-20 30 -11 0 -20 23 -20 50 0 48 -27 67 -47 34z"/>
<path d="M6700 2466 c0 -13 9 -48 21 -78 15 -39 14 -59 -2 -69 -17 -10 -17
-18 -1 -28 12 -7 22 -3 22 9 0 12 8 18 17 12 25 -16 2 91 -30 137 -15 22 -27
29 -27 17z"/>
<path d="M6613 2327 c-24 -25 -13 -67 17 -67 17 0 30 18 30 40 0 40 -21 52
-47 27z"/>
<path d="M5927 1835 c-8 -12 -4 -15 10 -7 14 9 23 2 23 -17 0 -17 14 -31 30
-31 17 0 30 12 30 28 0 34 -75 56 -93 27z"/>
<path d="M2300 1817 c0 -17 -13 -43 -30 -57 -43 -35 -37 -58 11 -46 22 6 36
16 30 22 -6 6 -2 20 8 33 12 14 12 34 0 52 -16 25 -18 24 -19 -4z"/>
</g>
</svg>
